<?xml version='1.0' encoding='utf-8'?>
<!DOCTYPE svg PUBLIC '-//W3C//DTD SVG 1.1//EN' 'http://www.w3.org/Graphics/SVG/1.1/DTD/svg11.dtd'>
<!-- Uploaded to: SVG Repo, www.svgrepo.com, Generator: SVG Repo Mixer Tools -->
<svg fill="white" version="1.1" xmlns="http://www.w3.org/2000/svg" viewBox="0 0 512 512" xmlns:xlink="http://www.w3.org/1999/xlink" enable-background="new 0 0 512 512">
  <g>
    <g>
      <path d="m277.6,334.8v-117.9c0-29.7-24.2-53.9-54-53.9-29.8,0-54,24.2-54,53.9v117.9c-23.8,17.1-38.1,44.6-38.1,74.4 0,50.6 41.3,91.8 92.1,91.8 50.8,0 92.1-41.2 92.1-91.8-5.68434e-14-29.8-14.3-57.3-38.1-74.4zm-54,125.4c-28.3,0-51.3-22.9-51.3-51 0-18.9 10.4-36.1 27.2-45 6.7-3.5 10.9-10.5 10.9-18v-129.3c0-7.2 5.9-13 13.2-13 7.3,0 13.2,5.8 13.2,13v129.2c0,7.6 4.2,14.5 10.9,18 16.8,8.9 27.2,26.1 27.2,45 0,28.2-23,51.1-51.3,51.1z"/>
      <path d="m92.3,215.2h-10v-9.9c0-11.3-9.1-20.4-20.4-20.4s-20.4,9.1-20.4,20.4v9.9h-10c-11.3,0-20.4,9.1-20.4,20.4s9,20.4 20.3,20.4h10v9.9c0,11.3 9.1,20.4 20.4,20.4s20.4-9.1 20.4-20.4v-9.9h10c11.3,0 20.4-9.1 20.4-20.4s-9-20.4-20.3-20.4z"/>
      <path d="m261.8,60.9c3.9,10.6 15.7,16 26.4,12.1 10.6-3.9 16-15.7 12.1-26.4l-8.3-22.3c-3.9-10.6-15.7-16-26.4-12.1-10.6,3.9-16,15.7-12.1,26.4l8.3,22.3z"/>
      <path d="m396.4,304.8c-3.9-10.6-15.7-16-26.4-12.1-10.6,3.9-16,15.7-12.1,26.4l8.3,22.3c3.9,10.6 15.7,16 26.4,12.1 10.6-3.9 16-15.7 12.1-26.4l-8.3-22.3z"/>
      <path d="m465.4,154l22.3-8.3c10.6-3.9 16-15.7 12.1-26.4-3.9-10.6-15.7-16-26.4-12.1l-22.3,8.3c-10.6,3.9-16,15.7-12.1,26.4 3.9,10.6 15.7,16 26.4,12.1z"/>
      <path d="m377.9,76.2c10.3,4.7 22.5,0.2 27.2-10.1l9.9-21.6c4.7-10.3 0.2-22.5-10.1-27.2-10.3-4.7-22.5-0.2-27.2,10.1l-9.9,21.6c-4.8,10.3-0.2,22.5 10.1,27.2z"/>
      <path d="m484.6,231.4l-21.6-9.9c-10.3-4.7-22.5-0.2-27.2,10.1s-0.2,22.5 10.1,27.2l21.6,9.9c10.3,4.7 22.5,0.2 27.2-10.1 4.7-10.3 0.2-22.5-10.1-27.2z"/>
      <path d="m295.3,91.2c-10.6,3.9-16,15.7-12.1,26.4s15.7,16 26.4,12.1c29.3-10.9 62,4.1 72.9,33.4 10.9,29.3-4.1,62-33.4,72.9-10.6,3.9-16,15.7-12.1,26.4 3.9,10.6 15.7,16 26.4,12.1 50.5-18.8 76.3-75.1 57.5-125.6s-75.1-76.4-125.6-57.7z"/>
    </g>
  </g>
</svg>